<svg xmlns="http://www.w3.org/2000/svg" xmlns:xlink="http://www.w3.org/1999/xlink" viewBox="0 0 500 500"><defs><clipPath id="freepik--clip-path--inject-120"><circle cx="323.66" cy="139.98" r="54.82" style="fill:none"></circle></clipPath><clipPath id="freepik--clip-path-2--inject-120"><circle cx="150.92" cy="222.33" r="54.82" style="fill:none"></circle></clipPath><clipPath id="freepik--clip-path-3--inject-120"><circle cx="323.66" cy="304.67" r="54.82" style="fill:none"></circle></clipPath></defs><g id="freepik--Characters--inject-120"><path d="M323.65,314.68a10,10,0,0,1-4.3-1L146.61,231.35a10,10,0,0,1,0-18L319.35,131A10,10,0,0,1,328,149L174.15,222.33,328,295.65a10,10,0,0,1-4.31,19Z" style="fill:#CFD8DC"></path><path d="M376.43,191.09l-.72-.7a72.36,72.36,0,0,0,8-9.78l.83.56A73.78,73.78,0,0,1,376.43,191.09Z" style="fill:#CFD8DC"></path><circle cx="323.66" cy="139.98" r="70" style="fill:#CFD8DC"></circle><circle cx="323.66" cy="139.98" r="54.82" style="fill:#fff"></circle><g style="clip-path:url(#freepik--clip-path--inject-120)"><path d="M325.13,170.73s19.67,4.1,30.37,2.44,9.46-16,1-23.17-6.5-5.5-4.5-13-2.5-13.5-11-13.83-.28-11-9-22.92-24.26-2.92-25.38,2.42c-4.88.16-10,8.11-6.35,15.3s-1,9.07-3.86,17.72,8.57,10.31,6,16.14S299.63,177,325.13,170.73Z" style="fill:#263238"></path><path d="M306,155.91c-.18,3-.53,5.81-.93,8.69s-.94,5.69-1.56,8.52-1.3,5.65-2.19,8.43a77,77,0,0,1-3,8.29l-.92,2c-.13.31-.37.76-.57,1.14s-.43.74-.65,1.11a31.85,31.85,0,0,1-2.84,3.8,65.87,65.87,0,0,1-6.24,6.26,115.74,115.74,0,0,1-13.67,10.35L270.67,211c1.95-1.89,3.94-3.85,5.87-5.8s3.83-3.93,5.63-6a75.56,75.56,0,0,0,5-6.12,27.75,27.75,0,0,0,2-3.07c.12-.25.26-.5.36-.73s.19-.41.32-.75l.69-1.83a102.73,102.73,0,0,0,4.14-15.41c.53-2.64.9-5.32,1.3-8s.69-5.42.93-8Z" style="fill:#ffb573"></path><path d="M299.8,145c-3.69.94-6.27,16.13-6.27,16.13L303.7,168s9.75-15.32,6.91-19.38C307.66,144.43,305.19,143.62,299.8,145Z" style="fill:#CFD8DC"></path><path d="M299.8,145c-3.69.94-6.27,16.13-6.27,16.13L303.7,168s9.75-15.32,6.91-19.38C307.66,144.43,305.19,143.62,299.8,145Z" style="fill:#fff;opacity:0.2"></path><polygon points="300.14 148.39 297.3 163.7 303.02 167.57 300.14 148.39" style="opacity:0.2"></polygon><path d="M272.35,209.65l-10.14.73,6.06,6.8s5.6-1.28,6.58-4.87Z" style="fill:#ffb573"></path><polygon points="256.6 213.98 260.76 220.38 268.26 217.18 262.21 210.38 256.6 213.98" style="fill:#ffb573"></polygon><path d="M299.8,145s-4.26,1.5,4.28,54.05h36.38c-.61-14.81-.63-23.93,6.44-54.31a107.39,107.39,0,0,0-15.44-2,116.64,116.64,0,0,0-16.52,0C307.85,143.35,299.8,145,299.8,145Z" style="fill:#CFD8DC"></path><path d="M299.8,145s-4.26,1.5,4.28,54.05h36.38c-.61-14.81-.63-23.93,6.44-54.31a107.39,107.39,0,0,0-15.44-2,116.64,116.64,0,0,0-16.52,0C307.85,143.35,299.8,145,299.8,145Z" style="fill:#fff;opacity:0.2"></path><path d="M329.82,124.1c-1,5.32-2.08,15.06,1.64,18.6,0,0-1.46,5.39-11.33,5.39-10.86,0-5.19-5.39-5.19-5.39,5.93-1.41,5.77-5.81,4.74-9.94Z" style="fill:#ffb573"></path><path d="M331.45,142.71a113.6,113.6,0,0,0-16.51,0l-1.08.1c-2.22,2.59.51,5.87,2.82,8.2,0,0,13.18-2,16.95-8.16C332.91,142.79,332.18,142.74,331.45,142.71Z" style="fill:#ffb573"></path><path d="M325.69,127.64l-6,5.12a17.82,17.82,0,0,1,.51,2.93c2.73,0,5.11-1.91,6.07-5.06C326.61,129.5,325.88,128.19,325.69,127.64Z" style="opacity:0.2"></path><path d="M330.12,110c1.88,8.69,2.87,12.32-.21,17.92-4.63,8.42-15.71,8.83-20.15.88-4-7.15-6.4-20.16,1-25.91A12.12,12.12,0,0,1,330.12,110Z" style="fill:#ffb573"></path><path d="M317.14,116.07c.2.7,0,1.37-.46,1.5s-1-.34-1.18-1,0-1.36.47-1.49S317,115.38,317.14,116.07Z" style="fill:#263238"></path><path d="M309.28,118.29c.2.69,0,1.36-.46,1.49s-1-.33-1.18-1,0-1.36.47-1.49S309.09,117.59,309.28,118.29Z" style="fill:#263238"></path><path d="M308.32,117.24h-1.81S307.74,118.3,308.32,117.24Z" style="fill:#263238"></path><path d="M312.06,118.86a19.38,19.38,0,0,1-1.23,5.13,3.1,3.1,0,0,0,2.61-.23Z" style="fill:#ed893e"></path><path d="M318,125.42a6.91,6.91,0,0,1-1,.36.21.21,0,0,1-.12-.41,5.73,5.73,0,0,0,3.89-3.42.2.2,0,0,1,.26-.13.2.2,0,0,1,.14.26A6,6,0,0,1,318,125.42Z" style="fill:#263238"></path><path d="M308.46,104c-1.9,2.17,18.78,13.3,23,11.3s.42-13.14-4.91-15.55S314.21,97.42,308.46,104Z" style="fill:#263238"></path><path d="M334.64,117.15a6.52,6.52,0,0,1-2.27,4.41c-1.75,1.46-3.56.11-3.85-2-.26-1.93.33-5,2.46-5.64A2.92,2.92,0,0,1,334.64,117.15Z" style="fill:#ffb573"></path><path d="M319.85,113.58a.43.43,0,0,1-.49-.09c-1.33-1.45-3.84-1.14-3.86-1.14A.43.43,0,0,1,315,112a.42.42,0,0,1,.37-.47c.12,0,3-.36,4.59,1.4a.43.43,0,0,1,0,.6A.34.34,0,0,1,319.85,113.58Z" style="fill:#263238"></path><path d="M305.9,115.32a.45.45,0,0,1-.42,0,.42.42,0,0,1-.1-.59,4.16,4.16,0,0,1,3.37-1.89.42.42,0,0,1,.42.43.42.42,0,0,1-.44.41,3.38,3.38,0,0,0-2.66,1.53A.39.39,0,0,1,305.9,115.32Z" style="fill:#263238"></path><path d="M350.83,154.31A140.18,140.18,0,0,1,356.22,170a90.22,90.22,0,0,1,3.24,16.59c.06.73.08,1.47.12,2.21l0,.55c0,.19,0,.34,0,.63l0,.77-.07.68a26.08,26.08,0,0,1-1,4.6,73.31,73.31,0,0,1-3,7.91,138.79,138.79,0,0,1-7.58,14.58l-4.1-1.94c1.75-5,3.51-10.12,5.08-15.13.77-2.5,1.5-5,2-7.43a20.9,20.9,0,0,0,.49-3.31v-.33l0-.24s0-.23,0-.38l-.05-.45c-.07-.61-.12-1.2-.21-1.82a103.68,103.68,0,0,0-3.57-14.94c-1.54-5-3.31-10-5.14-14.81Z" style="fill:#ffb573"></path><path d="M346.9,144.74c3.65,1.1,8,13.65,8,13.65L340.79,168.5s-5.16-10.47-3.63-15.18C338.76,148.41,342.74,143.47,346.9,144.74Z" style="fill:#CFD8DC"></path><path d="M346.9,144.74c3.65,1.1,8,13.65,8,13.65L340.79,168.5s-5.16-10.47-3.63-15.18C338.76,148.41,342.74,143.47,346.9,144.74Z" style="fill:#fff;opacity:0.2"></path><path d="M316.18,115h-1.81S315.6,116.08,316.18,115Z" style="fill:#263238"></path><path d="M341,196.91l.93,3.26c.13.25-.17.51-.59.51H303.9c-.32,0-.6-.16-.62-.37l-.33-3.25c0-.23.27-.42.63-.42h36.83A.66.66,0,0,1,341,196.91Z" style="fill:#263238"></path><path d="M336.05,201h1c.2,0,.35-.1.33-.22l-.46-4.23c0-.13-.19-.23-.38-.23h-1c-.19,0-.34.1-.33.23l.46,4.23C335.68,200.93,335.86,201,336.05,201Z" style="fill:#CFD8DC"></path><path d="M306.68,201h1c.2,0,.35-.1.33-.22l-.46-4.23c0-.13-.18-.23-.38-.23h-1c-.19,0-.34.1-.33.23l.46,4.23C306.31,200.93,306.48,201,306.68,201Z" style="fill:#CFD8DC"></path><path d="M321.36,201h1c.2,0,.35-.1.33-.22l-.46-4.23c0-.13-.18-.23-.38-.23h-1c-.19,0-.34.1-.33.23l.46,4.23C321,200.93,321.17,201,321.36,201Z" style="fill:#CFD8DC"></path><path d="M343.92,215.75l-7,6.68,9.05,1s3.3-4.71,1.62-8Z" style="fill:#ffb573"></path><polygon points="335.84 229.88 343.47 230.29 345.98 223.41 336.93 222.43 335.84 229.88" style="fill:#ffb573"></polygon></g><path d="M101.69,169.15l-.68-.74a73.93,73.93,0,0,1,16.52-11.56l.46.89A72.77,72.77,0,0,0,101.69,169.15Z" style="fill:#CFD8DC"></path><path d="M94,177.44l-.78-.62c1.23-1.56,2.54-3.09,3.9-4.54l.73.68C96.53,174.39,95.24,175.9,94,177.44Z" style="fill:#CFD8DC"></path><circle cx="150.92" cy="222.33" r="70" style="fill:#CFD8DC"></circle><circle cx="150.92" cy="222.33" r="54.82" style="fill:#fff"></circle><g style="clip-path:url(#freepik--clip-path-2--inject-120)"><path d="M175.64,237.19c2.58,6,5.25,12,7.94,18q2,4.49,4.11,8.9t4.3,8.68c.75,1.39,1.48,2.83,2.27,4.15l.59,1,.29.5a.47.47,0,0,0-.11-.1c-.13-.08,0,.07.26.25a9.77,9.77,0,0,0,3.15,1.06,36.68,36.68,0,0,0,4.31.55c3,.21,6.23.21,9.44.11l4.85-.2,4.83-.32,1.25,5.82a83.35,83.35,0,0,1-20.4,4.08,37.82,37.82,0,0,1-5.62-.05,20.35,20.35,0,0,1-6.43-1.52,11.22,11.22,0,0,1-3.74-2.65,9.45,9.45,0,0,1-.87-1.09l-.37-.55-.73-1.11c-1-1.48-1.87-3-2.78-4.44-3.48-5.94-6.57-11.94-9.48-18s-5.61-12.17-8.16-18.45Z" style="fill:#7f3e3b"></path><path d="M161.43,236.37c-2.43,7.09,11.83,28,11.83,28l13.67-7.57a160.31,160.31,0,0,0-8.21-19C173.9,228.72,164.09,228.59,161.43,236.37Z" style="fill:#CFD8DC"></path><path d="M161.43,236.37c-2.43,7.09,11.83,28,11.83,28l13.67-7.57a160.31,160.31,0,0,0-8.21-19C173.9,228.72,164.09,228.59,161.43,236.37Z" style="opacity:0.5"></path><path d="M161.22,237.27c3.06-1.47,6.58-.24,10.29,5.61s6.87,15.65,7.21,18.45l-5.46,3S160.09,245.06,161.22,237.27Z" style="opacity:0.2"></path><path d="M220.14,280.13l7.29-2.88,1.77,7.46s-8.31,2.48-9.59.09Z" style="fill:#7f3e3b"></path><polygon points="233.59 278.75 235.73 282.85 229.2 284.71 227.43 277.25 233.59 278.75" style="fill:#7f3e3b"></polygon><path d="M170.65,230.94s10.19,23.94,2.85,68.52H131.1c-.52-6.5,2.47-38.26-4.87-68.92a109.38,109.38,0,0,1,14.13-1.8,156.89,156.89,0,0,1,18,0A82.12,82.12,0,0,1,170.65,230.94Z" style="fill:#CFD8DC"></path><path d="M170.65,230.94s10.19,23.94,2.85,68.52H131.1c-.52-6.5,2.47-38.26-4.87-68.92a109.38,109.38,0,0,1,14.13-1.8,156.89,156.89,0,0,1,18,0A82.12,82.12,0,0,1,170.65,230.94Z" style="opacity:0.5"></path><polygon points="158.56 261.57 149.45 251.82 156.1 242.04 165.2 251.79 158.56 261.57" style="fill:#fff"></polygon><path d="M135.7,238.11c.88,5-.29,17.12-4.62,31.08a202.86,202.86,0,0,0-4.16-35.6v-.06C129.7,233.24,134.86,233.38,135.7,238.11Z" style="opacity:0.2"></path><path d="M141.44,208.45c1.34,5.8,2.84,16.42-1.08,20.29,0,0,2.48,5.85,13.25,5.87,8.64,0,4.77-5.87,4.77-5.87-6.52-1.54-6.52-6.34-5.55-10.84Z" style="fill:#7f3e3b"></path><path d="M146.08,212.3l6.75,5.59a17.86,17.86,0,0,0-.45,3.2c-2.48-.36-6-3.07-6.32-5.66A8.56,8.56,0,0,1,146.08,212.3Z" style="opacity:0.2"></path><path d="M158.35,191.2c3.6,2.33,4.12,13.54-1.15,15.14S151.52,186.79,158.35,191.2Z" style="fill:#263238"></path><path d="M138.9,202.37c2.42,7.51,3.45,12,8.32,15.08a10.26,10.26,0,0,0,15.8-9c-.1-7.2-4-18.27-12.32-19.66A10.38,10.38,0,0,0,138.9,202.37Z" style="fill:#7f3e3b"></path><path d="M141.63,194.63c4,5.42,4,14.06.88,15s-11.79-9-12.24-14.34c-.36-4.29,2.49-4.29,2.49-4.29s-4.6-2.67.62-5.88c5.89-3.61,20.47-3.26,13.91-8.34,4.75-1.58,6.59,1.45,6.29,3.29,3.5-1.07,3.27-4.87,3.27-4.87s9.3,5.2,5.11,11.26S150.06,194.47,141.63,194.63Z" style="fill:#263238"></path><path d="M137.58,211.52a7.87,7.87,0,0,0,5.37,2.21c2.65,0,3.18-2.5,1.78-4.59-1.25-1.89-4.14-4.15-6.47-3.14S135.83,209.79,137.58,211.52Z" style="fill:#7f3e3b"></path><path d="M151.08,202c.16.62.62,1.05,1,1s.61-.66.45-1.28-.62-1-1-1S150.93,201.33,151.08,202Z" style="fill:#263238"></path><path d="M158.14,200.41c.16.62.62,1.05,1,1s.61-.67.45-1.28-.61-1.05-1-1S158,199.79,158.14,200.41Z" style="fill:#263238"></path><path d="M156,201.21a24,24,0,0,0,4.34,4.65,3.68,3.68,0,0,1-2.85,1.21Z" style="fill:#630f0f"></path><path d="M154.77,209.32a5.38,5.38,0,0,1-3.55-1.28.18.18,0,1,1,.25-.27,5.3,5.3,0,0,0,4.54,1,.18.18,0,0,1,.22.14.2.2,0,0,1-.14.23A6.32,6.32,0,0,1,154.77,209.32Z" style="fill:#263238"></path><path d="M148.29,200.17a.4.4,0,0,1-.15,0,.37.37,0,0,1-.2-.49,3.6,3.6,0,0,1,2.61-2.17.38.38,0,0,1,.43.32.37.37,0,0,1-.32.42h0a2.9,2.9,0,0,0-2,1.72A.36.36,0,0,1,148.29,200.17Z" style="fill:#263238"></path><path d="M160.53,197.34a.37.37,0,0,1-.29-.14,3.18,3.18,0,0,0-2.5-1.2.37.37,0,0,1-.41-.34.37.37,0,0,1,.34-.41,3.93,3.93,0,0,1,3.15,1.47.38.38,0,0,1-.29.62Z" style="fill:#263238"></path><path d="M134.6,242,133,245.51c-.55,1.21-1.08,2.43-1.6,3.66-1.05,2.46-2,4.94-3,7.42s-1.79,5-2.5,7.47c-.38,1.25-.69,2.49-1,3.73l-.41,1.86-.06.23,0,.12s0,0,0,0l0,0s0,0,0,.11a5.67,5.67,0,0,0,.68,2.07,21,21,0,0,0,1.8,2.88,58.23,58.23,0,0,0,5,5.86c3.67,3.82,7.72,7.6,11.78,11.17L140.26,297a96.72,96.72,0,0,1-14.48-9.53,58.38,58.38,0,0,1-6.64-6.15,31.06,31.06,0,0,1-3-3.95,15.45,15.45,0,0,1-2.34-5.66,11.21,11.21,0,0,1-.18-2,10,10,0,0,1,.06-1.08l0-.41,0-.28.3-2.26c.26-1.48.49-3,.84-4.42q1-4.36,2.32-8.54c.89-2.79,1.9-5.52,3-8.21.56-1.34,1.14-2.68,1.74-4s1.22-2.6,2-4Z" style="fill:#7f3e3b"></path><path d="M126.23,230.54c-7.47,1.09-15.16,28.56-15.16,28.56l18,6.86s4.54-11.81,7.64-21C140,235.36,134.23,229.37,126.23,230.54Z" style="fill:#CFD8DC"></path><path d="M126.23,230.54c-7.47,1.09-15.16,28.56-15.16,28.56l18,6.86s4.54-11.81,7.64-21C140,235.36,134.23,229.37,126.23,230.54Z" style="opacity:0.5"></path><path d="M142.36,291.4l7,3.32-4.89,6.68s-6-2.91-4.94-6.47Z" style="fill:#7f3e3b"></path><polygon points="153.12 299.98 148.2 304.67 144.45 301.4 149.34 294.72 153.12 299.98" style="fill:#7f3e3b"></polygon></g><circle cx="323.66" cy="304.67" r="70" style="fill:#CFD8DC"></circle><circle cx="323.66" cy="304.67" r="54.82" style="fill:#fff"></circle><g style="clip-path:url(#freepik--clip-path-3--inject-120)"><path d="M304.33,322.86c-.17,3-.51,5.67-.9,8.49s-.91,5.55-1.5,8.31a92.15,92.15,0,0,1-5,16.35l-.9,2-.22.5-.11.25-.16.32a8.4,8.4,0,0,1-1.16,1.75,6.79,6.79,0,0,1-1.95,1.53,6.59,6.59,0,0,1-2.31.73,8.66,8.66,0,0,1-3.66-.38,17.5,17.5,0,0,1-4.62-2.39,37.35,37.35,0,0,1-3.51-2.83,81.08,81.08,0,0,1-11.1-12.79l3.45-2.91c1.92,1.8,3.93,3.63,5.94,5.36a76.3,76.3,0,0,0,6.13,4.89,30.87,30.87,0,0,0,3.09,2,10.25,10.25,0,0,0,2.73,1.16c.33.06.54,0,.39,0a1.26,1.26,0,0,0-.76.35c-.07.06-.08.07-.07,0l.31-.82.68-1.78a106.77,106.77,0,0,0,4-15.09c.52-2.57.88-5.19,1.27-7.8s.67-5.29.9-7.77Z" style="fill:#ff8b7b"></path><path d="M298.14,312c-3.67.93-6.24,16-6.24,16L302,334.92s9.69-15.23,6.87-19.27C305.94,311.45,303.49,310.65,298.14,312Z" style="fill:#263238"></path><polygon points="298.47 315.38 295.65 330.6 301.33 334.45 298.47 315.38" style="opacity:0.2"></polygon><path d="M270.78,341.21,266,333.62l-2.73,8.63s3.95,4.13,7.51,3.15Z" style="fill:#ff8b7b"></path><polygon points="258.92 331.1 257.03 338.45 263.24 342.25 265.97 333.62 258.92 331.1" style="fill:#ff8b7b"></polygon><path d="M298.14,312s-4.24,1.49,4.25,53.72h36.15c-.6-14.71-.62-23.78,6.41-54a106,106,0,0,0-15.35-2,115.24,115.24,0,0,0-16.42,0C306.13,310.37,298.14,312,298.14,312Z" style="fill:#263238"></path><path d="M306.15,273.48c12.94-20.71,51.27-3.73,31.26,16.66C310.66,317.39,306.15,273.48,306.15,273.48Z" style="fill:#263238"></path><path d="M314.71,302.79a7.1,7.1,0,0,1-3.81-1c-8-5-4-26.06-3.84-27a.38.38,0,0,1,.44-.29.37.37,0,0,1,.29.44c0,.21-4.1,21.48,3.5,26.17,3.68,2.27,9.57.31,17.52-5.82a.37.37,0,0,1,.53.07.38.38,0,0,1-.07.52C323.33,300.49,318.45,302.79,314.71,302.79Z" style="fill:#263238"></path><path d="M330.42,267.63c4-12.09,25.43-8.23,17.89,4.64C340.33,285.89,330.42,267.63,330.42,267.63Z" style="fill:#263238"></path><path d="M328,291.25c-1,5.28-2.07,15,1.63,18.48,0,0-1.45,5.36-11.26,5.36-10.79,0-5.16-5.36-5.16-5.36,5.89-1.41,5.74-5.78,4.72-9.88Z" style="fill:#ff8b7b"></path><path d="M317.59,315.08a15.72,15.72,0,0,1,3.56,5.47c1.89-.67,11.64-6,11.83-11a37.54,37.54,0,0,0-3.94-.83A28,28,0,0,1,317.59,315.08Z" style="fill:#CFD8DC"></path><path d="M317.59,315.08a22.34,22.34,0,0,0-3.55,5.47,8.42,8.42,0,0,1-3.5-10.67,16.26,16.26,0,0,1,4.5-.77S310.2,312.91,317.59,315.08Z" style="fill:#CFD8DC"></path><path d="M323.86,294.76l-6,5.09a16.6,16.6,0,0,1,.51,2.91c2.25-.33,5.34-2.8,5.58-5.15A7.86,7.86,0,0,0,323.86,294.76Z" style="opacity:0.2"></path><path d="M333.54,281.56c-2.07,8.59-2.76,12.26-7.94,15.94-7.78,5.54-17.87,1.12-18.41-7.92-.48-8.13,3-20.81,12.09-22.76A12.05,12.05,0,0,1,333.54,281.56Z" style="fill:#ff8b7b"></path><path d="M319,280.39c-.13.7-.6,1.21-1.06,1.13s-.74-.72-.61-1.43.6-1.22,1.06-1.13S319.07,279.68,319,280.39Z" style="fill:#263238"></path><path d="M311,279c-.13.71-.6,1.21-1.07,1.13s-.73-.72-.61-1.43.61-1.21,1.07-1.13S311.08,278.26,311,279Z" style="fill:#263238"></path><path d="M310.55,277.62l-1.62-.79S309.57,278.31,310.55,277.62Z" style="fill:#263238"></path><path d="M313.85,281.83a19.12,19.12,0,0,1-3.32,4.06,3.08,3.08,0,0,0,2.44.92Z" style="fill:#ff5652"></path><path d="M316.16,290.14a5.93,5.93,0,0,0,4.14-1.61.22.22,0,0,0,0-.3.21.21,0,0,0-.3,0,5.69,5.69,0,0,1-4.95,1.38.22.22,0,0,0-.25.17.22.22,0,0,0,.17.25A7.46,7.46,0,0,0,316.16,290.14Z" style="fill:#263238"></path><path d="M337.05,284.11c-4.44,7.38-16.31-8.05-18.28-15.51-2.92,1.45-8.9,5.7-9,2.94s10.09-7.54,15.54-6.7S340.1,279,337.05,284.11Z" style="fill:#263238"></path><path d="M334.9,288.42a6.45,6.45,0,0,1-3.49,3.48c-2.1.84-3.4-1-3-3.09.33-1.9,1.84-4.63,4-4.57A2.89,2.89,0,0,1,334.9,288.42Z" style="fill:#ff8b7b"></path><path d="M321.7,277.31a.41.41,0,0,0,.19,0,.43.43,0,0,0,.19-.57,4.18,4.18,0,0,0-3.08-2.31.41.41,0,0,0-.46.37.43.43,0,0,0,.37.47h0a3.33,3.33,0,0,1,2.42,1.85A.4.4,0,0,0,321.7,277.31Z" style="fill:#263238"></path><path d="M309.05,275.92a.48.48,0,0,0,.31-.13,3.37,3.37,0,0,1,2.84-1.09.42.42,0,0,0,.49-.34.41.41,0,0,0-.33-.49,4.21,4.21,0,0,0-3.61,1.33.43.43,0,0,0,0,.6A.42.42,0,0,0,309.05,275.92Z" style="fill:#263238"></path><path d="M339.08,363.61l.93,3.24c.12.25-.17.51-.59.51H302.21c-.32,0-.59-.16-.61-.37l-.33-3.24c0-.22.26-.41.62-.41h36.6A.66.66,0,0,1,339.08,363.61Z" style="fill:#263238"></path><path d="M334.17,367.71h1c.19,0,.34-.11.33-.23l-.46-4.2c0-.13-.19-.23-.38-.23h-1c-.2,0-.35.1-.33.23l.46,4.2C333.8,367.6,334,367.71,334.17,367.71Z" style="fill:#CFD8DC"></path><path d="M305,367.71h1c.19,0,.34-.11.33-.23l-.46-4.2c0-.13-.19-.23-.38-.23h-1c-.2,0-.35.1-.33.23l.46,4.2C304.6,367.6,304.77,367.71,305,367.71Z" style="fill:#CFD8DC"></path><path d="M319.57,367.71h1c.19,0,.34-.11.33-.23l-.46-4.2c0-.13-.19-.23-.38-.23h-1c-.2,0-.35.1-.33.23l.46,4.2C319.2,367.6,319.37,367.71,319.57,367.71Z" style="fill:#CFD8DC"></path><path d="M318.54,279l-1.62-.79S317.56,279.72,318.54,279Z" style="fill:#263238"></path><path d="M348.86,321.27A141.73,141.73,0,0,1,354,336.08a96.07,96.07,0,0,1,3.27,15.56l.21,2,.1,2.09,0,.52v.34l0,.56a7.93,7.93,0,0,1-.46,2.07,9.07,9.07,0,0,1-1.8,2.84,16.84,16.84,0,0,1-3.93,3,31.2,31.2,0,0,1-3.86,1.82,65.81,65.81,0,0,1-15.41,3.86l-1-4.39a110.08,110.08,0,0,0,13.41-5.92,30.89,30.89,0,0,0,2.85-1.78,8.75,8.75,0,0,0,2-1.8c.18-.25.21-.42.18-.38a.32.32,0,0,0-.08.21.19.19,0,0,0,0,.08v-.14l0-.43-.19-1.71-.28-1.74c-.17-1.15-.44-2.34-.67-3.51s-.52-2.35-.85-3.53c-.59-2.36-1.29-4.72-2-7.08-1.5-4.67-3.15-9.44-4.89-14Z" style="fill:#ff8b7b"></path><path d="M345,311.75c3.62,1.1,8,13.58,8,13.58l-14.05,10s-5.12-10.41-3.6-15.09C336.85,315.4,340.82,310.5,345,311.75Z" style="fill:#263238"></path><path d="M331.65,366l-9.6-.6,5.4,7.27s5.66-.77,6.95-4.24Z" style="fill:#ff8b7b"></path><polygon points="315.88 369.62 320.73 375.46 327.45 372.65 322.05 365.38 315.88 369.62" style="fill:#ff8b7b"></polygon></g></g></svg>